# xmcd
#
# Track frame offsets:
#  183
#  18990
#  37773
#  55403
#  76115
#  91935
#  106385
#  126865
#  149290
#  164195
#
# Disc length: 2484 seconds
#
# Revision: 0
# Processed by: cddbd v1.5.1PL2 Copyright (c) Steve Scherf et al.
# Submitted via: Collectorz.com_Music_Collector 6.9
#
DISCID=7c09b20a
DTITLE=Alan Britton - Made In Britton
DYEAR=1991
DGENRE=Country
TTITLE0=Alan Britton - Andy Vincent - Lonely Heart
TTITLE1=Alan Britton - Andy Vincent - Our Last Goodbye
TTITLE2=Alan Britton - Andy Vincent - Come Back and Stay
TTITLE3=Songwriter
TTITLE4=Alan Britton - Andy Vincent - Pickin On Six
TTITLE5=Skip Ewing - Burning A Hole In My Heart
TTITLE6=The Visitor
TTITLE7=Call It Fate, Call It Magic
TTITLE8=Precious Times
TTITLE9=We Don't Go Dancing
EXTD=
EXTT0=
EXTT1=
EXTT2=
EXTT3=
EXTT4=
EXTT5=
EXTT6=
EXTT7=
EXTT8=
EXTT9=
PLAYORDER=
